<svg width="124" height="92" viewBox="0 0 124 92" fill="none" xmlns="http://www.w3.org/2000/svg">
<path opacity="0.1" fill-rule="evenodd" clip-rule="evenodd" d="M53.8566 -34.9631L116.318 -18.1886C116.354 -18.1793 116.388 -18.1675 116.422 -18.1558L116.422 -18.1557C116.443 -18.1487 116.463 -18.1416 116.484 -18.1351L85.2793 -49.4122C78.5142 -56.1959 67.5422 -56.1959 60.7746 -49.4122L46.2957 -34.8997C48.6883 -35.58 51.2824 -35.6533 53.8566 -34.9631ZM36.3877 -24.8544L19.6517 37.7521C18.9628 40.3313 19.0374 42.9291 19.7126 45.3255L5.23495 30.813C-1.53258 24.0318 -1.53258 13.0361 5.23495 6.25489L36.4424 -25.0247C36.4338 -24.994 36.4236 -24.964 36.4134 -24.9337L36.4134 -24.9336C36.4046 -24.9075 36.3958 -24.8813 36.3877 -24.8544ZM59.0173 57.6309C53.4585 59.127 47.7443 55.8153 46.252 50.2429L34.0227 4.49303C32.5316 -1.07818 35.8333 -6.80857 41.3921 -8.3021L87.0362 -20.56C92.5975 -22.0523 98.313 -18.7469 99.8028 -13.1719L112.035 32.5767C113.524 38.1516 110.224 43.882 104.664 45.3743L59.0173 57.6309ZM140.82 6.25543L126.343 -8.25335C127.02 -5.85698 127.096 -3.25915 126.404 -0.679981L109.668 61.9277C109.659 61.9642 109.647 62.0006 109.634 62.0375C109.629 62.0547 109.623 62.072 109.617 62.0894L140.821 30.8135C147.586 24.0323 147.586 13.0379 140.82 6.25543ZM29.736 55.2617L92.1995 72.0362C94.7724 72.7264 97.3665 72.6518 99.7554 71.9741L85.279 86.4841C78.5139 93.2653 67.5419 93.2653 60.7744 86.4841L29.5706 55.2069C29.5986 55.2144 29.6259 55.2244 29.6533 55.2343C29.6807 55.2443 29.708 55.2542 29.736 55.2617Z" fill="white"/>
</svg>
