<svg width="139" height="91" viewBox="0 0 139 91" fill="none" xmlns="http://www.w3.org/2000/svg">
<path opacity="0.1" fill-rule="evenodd" clip-rule="evenodd" d="M40.479 21.3044L107.216 39.2273C107.255 39.2373 107.292 39.2499 107.328 39.2624C107.35 39.27 107.372 39.2775 107.394 39.2845L74.0528 5.86613C66.8246 -1.38197 55.1015 -1.38197 47.8706 5.86613L32.4005 21.3721C34.9569 20.6453 37.7286 20.567 40.479 21.3044ZM21.8141 32.1052L3.9323 98.9977C3.1962 101.753 3.27592 104.529 3.99741 107.09L-11.4714 91.5835C-18.7022 84.3381 -18.7022 72.5896 -11.4714 65.3442L21.8725 31.9232C21.8632 31.9561 21.8524 31.9882 21.8415 32.0206L21.8354 32.0386C21.828 32.0605 21.8208 32.0826 21.8141 32.1052ZM45.9927 120.237C40.0534 121.836 33.9479 118.297 32.3535 112.344L19.287 63.4617C17.6939 57.5091 21.2216 51.3864 27.1609 49.7906L75.9298 36.6936C81.8718 35.0991 87.9785 38.6308 89.5703 44.5874L102.639 93.4679C104.231 99.4245 100.705 105.547 94.7642 107.142L45.9927 120.237ZM133.396 65.3445L117.928 49.8424C118.651 52.4028 118.732 55.1785 117.993 57.9343L100.111 124.828C100.101 124.867 100.088 124.906 100.075 124.945L100.068 124.968L100.057 125.001L133.397 91.5838C140.625 84.3383 140.625 72.5912 133.396 65.3445ZM14.7071 117.706L81.4467 135.629C84.1958 136.366 86.9675 136.287 89.52 135.563L74.0525 151.066C66.8243 158.311 55.1011 158.311 47.8703 151.066L14.5303 117.648C14.5602 117.656 14.5895 117.666 14.6187 117.677C14.6479 117.687 14.6772 117.698 14.7071 117.706Z" fill="white"/>
</svg>
