<svg width="68" height="68" viewBox="0 0 68 68" fill="none" xmlns="http://www.w3.org/2000/svg">
<g clip-path="url(#clip0)">
<mask id="path-1-inside-1" fill="white">
<path fill-rule="evenodd" clip-rule="evenodd" d="M26.9242 3.12468C27.3339 1.29817 28.9554 0 30.8273 0H37.1727C39.0446 0 40.6661 1.29817 41.0758 3.12468L41.9792 7.15335C43.8558 7.71025 45.6501 8.45855 47.3394 9.37562L50.8289 7.16458C52.4101 6.16268 54.4746 6.39134 55.7982 7.71496L60.2851 12.2018C61.6087 13.5255 61.8374 15.59 60.8355 17.1712L58.6244 20.6607C59.5415 22.35 60.2898 24.1442 60.8467 26.0208L64.8753 26.9242C66.7018 27.3339 68 28.9554 68 30.8273V37.1727C68 39.0446 66.7018 40.6661 64.8753 41.0758L60.8467 41.9792C60.2898 43.8557 59.5415 45.6499 58.6245 47.3392L60.8357 50.8289C61.8376 52.4101 61.6089 54.4746 60.2853 55.7982L55.7984 60.2851C54.4748 61.6087 52.4102 61.8374 50.829 60.8355L47.3394 58.6244C45.6501 59.5414 43.8558 60.2897 41.9792 60.8467L41.0758 64.8753C40.6661 66.7018 39.0446 68 37.1727 68H30.8273C28.9554 68 27.3339 66.7018 26.9242 64.8753L26.0208 60.8467C24.1442 60.2898 22.35 59.5415 20.6607 58.6244L17.1712 60.8355C15.59 61.8374 13.5255 61.6087 12.2019 60.2851L7.71497 55.7982C6.39135 54.4746 6.16269 52.4101 7.16458 50.8289L9.37562 47.3394C8.45855 45.6501 7.71025 43.8558 7.15335 41.9792L3.12469 41.0758C1.29817 40.6661 0 39.0446 0 37.1727V30.8273C0 28.9554 1.29817 27.3339 3.12468 26.9242L7.15335 26.0208C7.71026 24.1441 8.45858 22.3498 9.37567 20.6605L7.16475 17.1712C6.16285 15.59 6.39152 13.5255 7.71514 12.2019L12.202 7.71498C13.5256 6.39136 15.5902 6.16269 17.1714 7.16458L20.6607 9.37555C22.35 8.45851 24.1442 7.71024 26.0208 7.15335L26.9242 3.12468Z"/>
</mask>
<path d="M26.9242 3.12468L24.9727 2.68703V2.68703L26.9242 3.12468ZM41.0758 3.12468L39.1242 3.56234V3.56234L41.0758 3.12468ZM41.9792 7.15335L40.0277 7.59101C40.1864 8.29834 40.7153 8.86446 41.4102 9.0707L41.9792 7.15335ZM47.3394 9.37562L46.3852 11.1333C47.0226 11.4793 47.7973 11.4532 48.4099 11.065L47.3394 9.37562ZM50.8289 7.16458L51.8993 8.85398L50.8289 7.16458ZM55.7982 7.71496L57.2124 6.30075L55.7982 7.71496ZM60.2851 12.2018L58.8709 13.6161H58.8709L60.2851 12.2018ZM60.8355 17.1712L62.5249 18.2417V18.2417L60.8355 17.1712ZM58.6244 20.6607L56.935 19.5902C56.5469 20.2028 56.5207 20.9775 56.8667 21.6149L58.6244 20.6607ZM60.8467 26.0208L58.9293 26.5898C59.1355 27.2847 59.7017 27.8137 60.409 27.9723L60.8467 26.0208ZM64.8753 26.9242L64.4377 28.8758L64.8753 26.9242ZM64.8753 41.0758L65.313 43.0273L64.8753 41.0758ZM60.8467 41.9792L60.409 40.0277C59.7017 40.1863 59.1355 40.7153 58.9293 41.4102L60.8467 41.9792ZM58.6245 47.3392L56.8668 46.385C56.5208 47.0224 56.5469 47.7971 56.9351 48.4097L58.6245 47.3392ZM60.8357 50.8289L62.5251 49.7584H62.5251L60.8357 50.8289ZM60.2853 55.7982L61.6995 57.2125H61.6995L60.2853 55.7982ZM55.7984 60.2851L54.3842 58.8709H54.3842L55.7984 60.2851ZM50.829 60.8355L49.7586 62.5249L49.7586 62.5249L50.829 60.8355ZM47.3394 58.6244L48.4099 56.935C47.7973 56.5468 47.0226 56.5207 46.3852 56.8667L47.3394 58.6244ZM41.9792 60.8467L41.4102 58.9293C40.7153 59.1355 40.1864 59.7017 40.0277 60.409L41.9792 60.8467ZM41.0758 64.8753L39.1242 64.4377L41.0758 64.8753ZM26.9242 64.8753L24.9727 65.313L26.9242 64.8753ZM26.0208 60.8467L27.9723 60.409C27.8137 59.7017 27.2847 59.1355 26.5898 58.9293L26.0208 60.8467ZM20.6607 58.6244L21.6149 56.8667C20.9775 56.5207 20.2028 56.5469 19.5902 56.935L20.6607 58.6244ZM17.1712 60.8355L16.1007 59.1461L17.1712 60.8355ZM12.2019 60.2851L13.6161 58.8709L12.2019 60.2851ZM7.71497 55.7982L6.30076 57.2124H6.30076L7.71497 55.7982ZM7.16458 50.8289L8.85399 51.8993H8.85399L7.16458 50.8289ZM9.37562 47.3394L11.065 48.4099C11.4532 47.7973 11.4793 47.0226 11.1333 46.3852L9.37562 47.3394ZM7.15335 41.9792L9.0707 41.4102C8.86446 40.7153 8.29833 40.1863 7.591 40.0277L7.15335 41.9792ZM3.12469 41.0758L2.68703 43.0273H2.68703L3.12469 41.0758ZM3.12468 26.9242L2.68703 24.9727H2.68702L3.12468 26.9242ZM7.15335 26.0208L7.591 27.9723C8.29834 27.8137 8.86446 27.2847 9.0707 26.5898L7.15335 26.0208ZM9.37567 20.6605L11.1334 21.6147C11.4794 20.9773 11.4532 20.2026 11.0651 19.59L9.37567 20.6605ZM7.16475 17.1712L5.47534 18.2417V18.2417L7.16475 17.1712ZM7.71514 12.2019L9.12935 13.6161V13.6161L7.71514 12.2019ZM12.202 7.71498L10.7878 6.30076L12.202 7.71498ZM17.1714 7.16458L18.2418 5.47518L18.2418 5.47518L17.1714 7.16458ZM20.6607 9.37555L19.5903 11.065C20.2028 11.4531 20.9775 11.4792 21.6149 11.1333L20.6607 9.37555ZM26.0208 7.15335L26.5898 9.0707C27.2847 8.86446 27.8137 8.29833 27.9723 7.591L26.0208 7.15335ZM30.8273 -2C28.0195 -2 25.5872 -0.0527406 24.9727 2.68703L28.8758 3.56234C29.0806 2.64909 29.8914 2 30.8273 2V-2ZM37.1727 -2H30.8273V2H37.1727V-2ZM43.0273 2.68702C42.4129 -0.0527442 39.9805 -2 37.1727 -2V2C38.1086 2 38.9194 2.64909 39.1242 3.56234L43.0273 2.68702ZM43.9308 6.71569L43.0273 2.68702L39.1242 3.56234L40.0277 7.59101L43.9308 6.71569ZM41.4102 9.0707C43.1516 9.58747 44.8169 10.2819 46.3852 11.1333L48.2936 7.61791C46.4833 6.63516 44.56 5.83303 42.5483 5.236L41.4102 9.0707ZM49.7584 5.47517L46.2689 7.68621L48.4099 11.065L51.8993 8.85398L49.7584 5.47517ZM57.2124 6.30075C55.227 4.31532 52.1302 3.97233 49.7584 5.47517L51.8993 8.85398C52.6899 8.35304 53.7222 8.46737 54.384 9.12918L57.2124 6.30075ZM61.6993 10.7876L57.2124 6.30075L54.384 9.12918L58.8709 13.6161L61.6993 10.7876ZM62.5249 18.2417C64.0277 15.8699 63.6848 12.7731 61.6993 10.7876L58.8709 13.6161C59.5327 14.2779 59.647 15.3101 59.1461 16.1007L62.5249 18.2417ZM60.3138 21.7312L62.5249 18.2417L59.1461 16.1007L56.935 19.5902L60.3138 21.7312ZM56.8667 21.6149C57.7181 23.1832 58.4125 24.8484 58.9293 26.5898L62.764 25.4517C62.167 23.44 61.3649 21.5168 60.3821 19.7065L56.8667 21.6149ZM65.313 24.9727L61.2843 24.0692L60.409 27.9723L64.4377 28.8758L65.313 24.9727ZM70 30.8273C70 28.0195 68.0527 25.5871 65.313 24.9727L64.4377 28.8758C65.3509 29.0806 66 29.8914 66 30.8273H70ZM70 37.1727V30.8273H66V37.1727H70ZM65.313 43.0273C68.0527 42.4128 70 39.9805 70 37.1727H66C66 38.1086 65.3509 38.9194 64.4377 39.1242L65.313 43.0273ZM61.2843 43.9308L65.313 43.0273L64.4377 39.1242L60.409 40.0277L61.2843 43.9308ZM58.9293 41.4102C58.4126 43.1515 57.7181 44.8167 56.8668 46.385L60.3822 48.2934C61.3649 46.4831 62.167 44.56 62.764 42.5482L58.9293 41.4102ZM62.5251 49.7584L60.3139 46.2687L56.9351 48.4097L59.1463 51.8993L62.5251 49.7584ZM61.6995 57.2125C63.6849 55.227 64.0279 52.1302 62.5251 49.7584L59.1463 51.8993C59.6472 52.6899 59.5329 53.7222 58.8711 54.384L61.6995 57.2125ZM57.2126 61.6993L61.6995 57.2125L58.8711 54.384L54.3842 58.8709L57.2126 61.6993ZM49.7586 62.5249C52.1304 64.0278 55.2272 63.6848 57.2126 61.6993L54.3842 58.8709C53.7224 59.5327 52.6901 59.647 51.8995 59.1461L49.7586 62.5249ZM46.269 60.3138L49.7586 62.5249L51.8995 59.1461L48.4099 56.935L46.269 60.3138ZM46.3852 56.8667C44.8169 57.7181 43.1516 58.4125 41.4102 58.9293L42.5483 62.764C44.5601 62.167 46.4833 61.3648 48.2936 60.3821L46.3852 56.8667ZM43.0273 65.313L43.9308 61.2843L40.0277 60.409L39.1242 64.4377L43.0273 65.313ZM37.1727 70C39.9805 70 42.4129 68.0527 43.0273 65.313L39.1242 64.4377C38.9194 65.3509 38.1086 66 37.1727 66V70ZM30.8273 70H37.1727V66H30.8273V70ZM24.9727 65.313C25.5872 68.0527 28.0195 70 30.8273 70V66C29.8914 66 29.0806 65.3509 28.8758 64.4377L24.9727 65.313ZM24.0692 61.2843L24.9727 65.313L28.8758 64.4377L27.9723 60.409L24.0692 61.2843ZM26.5898 58.9293C24.8484 58.4125 23.1832 57.7181 21.6149 56.8667L19.7065 60.3822C21.5168 61.3649 23.44 62.167 25.4518 62.764L26.5898 58.9293ZM18.2417 62.5249L21.7312 60.3139L19.5902 56.935L16.1007 59.1461L18.2417 62.5249ZM10.7876 61.6993C12.7731 63.6847 15.8699 64.0277 18.2417 62.5249L16.1007 59.1461C15.3102 59.647 14.2779 59.5327 13.6161 58.8709L10.7876 61.6993ZM6.30076 57.2124L10.7876 61.6993L13.6161 58.8709L9.12919 54.384L6.30076 57.2124ZM5.47517 49.7584C3.97234 52.1302 4.31533 55.227 6.30076 57.2124L9.12919 54.384C8.46738 53.7222 8.35305 52.6899 8.85399 51.8993L5.47517 49.7584ZM7.68621 46.2689L5.47517 49.7584L8.85399 51.8993L11.065 48.4099L7.68621 46.2689ZM11.1333 46.3852C10.2819 44.8169 9.58747 43.1516 9.0707 41.4102L5.23599 42.5482C5.83303 44.56 6.63516 46.4833 7.61792 48.2936L11.1333 46.3852ZM2.68703 43.0273L6.71569 43.9308L7.591 40.0277L3.56234 39.1242L2.68703 43.0273ZM-2 37.1727C-2 39.9805 -0.0527399 42.4128 2.68703 43.0273L3.56234 39.1242C2.64909 38.9194 2 38.1086 2 37.1727H-2ZM-2 30.8273V37.1727H2V30.8273H-2ZM2.68702 24.9727C-0.0527435 25.5872 -2 28.0195 -2 30.8273H2C2 29.8914 2.64909 29.0806 3.56234 28.8758L2.68702 24.9727ZM6.71569 24.0692L2.68703 24.9727L3.56234 28.8758L7.591 27.9723L6.71569 24.0692ZM9.0707 26.5898C9.58748 24.8484 10.282 23.1831 11.1334 21.6147L7.61797 19.7063C6.63519 21.5166 5.83304 23.4399 5.236 25.4518L9.0707 26.5898ZM5.47534 18.2417L7.68626 21.731L11.0651 19.59L8.85416 16.1007L5.47534 18.2417ZM6.30092 10.7876C4.31549 12.7731 3.9725 15.8699 5.47534 18.2417L8.85416 16.1008C8.35321 15.3102 8.46754 14.2779 9.12935 13.6161L6.30092 10.7876ZM10.7878 6.30076L6.30092 10.7876L9.12935 13.6161L13.6162 9.12919L10.7878 6.30076ZM18.2418 5.47518C15.8701 3.97234 12.7732 4.31533 10.7878 6.30076L13.6162 9.12919C14.278 8.46738 15.3103 8.35305 16.1009 8.85399L18.2418 5.47518ZM21.7312 7.68614L18.2418 5.47518L16.1009 8.85399L19.5903 11.065L21.7312 7.68614ZM21.6149 11.1333C23.1832 10.2819 24.8485 9.58746 26.5898 9.0707L25.4518 5.23599C23.44 5.83301 21.5168 6.63512 19.7065 7.61784L21.6149 11.1333ZM24.9727 2.68703L24.0692 6.71569L27.9723 7.591L28.8758 3.56234L24.9727 2.68703Z" fill="#438DE1" mask="url(#path-1-inside-1)"/>
<circle cx="34" cy="34" r="21" stroke="#438DE1" stroke-width="2" stroke-linecap="round" stroke-linejoin="round"/>
<path d="M27.262 36.041L25.849 32.045C25.765 31.835 25.675 31.589 25.579 31.307C25.489 31.025 25.402 30.719 25.318 30.389C25.234 30.725 25.144 31.037 25.048 31.325C24.958 31.607 24.871 31.853 24.787 32.063L23.383 36.041H27.262ZM31.798 41H29.701C29.467 41 29.275 40.946 29.125 40.838C28.981 40.724 28.873 40.58 28.801 40.406L27.919 37.913H22.717L21.835 40.406C21.775 40.556 21.67 40.694 21.52 40.82C21.37 40.94 21.181 41 20.953 41H18.838L23.941 27.941H26.704L31.798 41ZM37.4167 34.439C38.2627 34.439 38.8807 34.235 39.2707 33.827C39.6667 33.419 39.8647 32.861 39.8647 32.153C39.8647 31.829 39.8137 31.535 39.7117 31.271C39.6157 31.001 39.4657 30.773 39.2617 30.587C39.0637 30.395 38.8117 30.248 38.5057 30.146C38.1997 30.044 37.8367 29.993 37.4167 29.993H35.7067V34.439H37.4167ZM37.4167 27.941C38.3107 27.941 39.0817 28.046 39.7297 28.256C40.3837 28.466 40.9207 28.76 41.3407 29.138C41.7607 29.51 42.0697 29.954 42.2677 30.47C42.4717 30.986 42.5737 31.547 42.5737 32.153C42.5737 32.795 42.4687 33.383 42.2587 33.917C42.0487 34.451 41.7307 34.91 41.3047 35.294C40.8787 35.678 40.3417 35.978 39.6937 36.194C39.0457 36.404 38.2867 36.509 37.4167 36.509H35.7067V41H33.0067V27.941H37.4167ZM47.0098 41H44.2918V27.941H47.0098V41Z" fill="#438DE1"/>
</g>
<defs>
<clipPath id="clip0">
<rect width="68" height="68" fill="white"/>
</clipPath>
</defs>
</svg>
