<svg width="65" height="55" viewBox="0 0 65 55" fill="none" xmlns="http://www.w3.org/2000/svg">
<path fill-rule="evenodd" clip-rule="evenodd" d="M9.91304 34.2861C9.91304 29.8608 8.18359 27.4802 4.72464 27.1444V26.6703C8.18359 26.3147 9.91304 23.9637 9.91304 19.6175V10.8459C9.91304 8.45545 10.4348 6.74659 11.4783 5.71929C12.5411 4.69199 14.2802 4.17834 16.6957 4.17834H18V0H16.2609C8.85987 0 5.15942 3.39795 5.15942 10.194V17.7505C5.15942 20.1015 4.78261 21.7412 4.02899 22.6697C3.27536 23.5982 1.93238 24.0625 0 24.0625V29.7225C1.93238 29.7225 3.27536 30.1769 4.02899 31.0857C4.78261 32.0142 5.15942 33.644 5.15942 35.9752V44.5393C5.15942 51.5131 8.85987 55 16.2609 55H18V50.8217H16.6957C14.2802 50.8217 12.5507 50.308 11.5072 49.2807C10.4444 48.2337 9.91304 46.5347 9.91304 44.1837V34.2861ZM40.087 19.6175C40.087 23.9637 41.8164 26.3147 45.2754 26.6703V27.1444C41.8164 27.4802 40.087 29.8608 40.087 34.2861V44.1837C40.087 46.5347 39.5556 48.2337 38.4928 49.2807C37.4493 50.308 35.7198 50.8217 33.3043 50.8217H32V55H33.7391C41.1401 55 44.8406 51.5131 44.8406 44.5393V35.9752C44.8406 33.644 45.2174 32.0142 45.971 31.0857C46.7246 30.1769 48.0676 29.7225 50 29.7225V24.0625C48.0676 24.0625 46.7246 23.5982 45.971 22.6697C45.2174 21.7412 44.8406 20.1015 44.8406 17.7505V10.194C44.8406 3.39795 41.1401 0 33.7391 0H32V4.17834H33.3043C35.7198 4.17834 37.4589 4.69199 38.5217 5.71929C39.5652 6.74659 40.087 8.45545 40.087 10.8459V19.6175Z" fill="#438DE1"/>
<rect x="55.5" y="40" width="4" height="15" fill="#438DE1"/>
<rect x="65" y="45.5" width="4" height="15" transform="rotate(90 65 45.5)" fill="#438DE1"/>
</svg>
