<svg width="68" height="68" viewBox="0 0 68 68" fill="none" xmlns="http://www.w3.org/2000/svg">
<rect x="1" y="1" width="53" height="61" fill="white" stroke="#438DE1" stroke-width="2"/>
<path d="M14 18.7403L26.2129 6H67V67H14V18.7403Z" fill="white" stroke="#438DE1" stroke-width="2" stroke-linejoin="round"/>
<path d="M20.7071 12.7071L26 7.41421V18H15.4142L20.7071 12.7071Z" stroke="#438DE1" stroke-width="2"/>
<path d="M21.586 34H19.966V25.324H21.586V34ZM30.955 25.324V34H30.127C29.999 34 29.891 33.98 29.803 33.94C29.719 33.896 29.637 33.824 29.557 33.724L25.027 27.94C25.051 28.204 25.063 28.448 25.063 28.672V34H23.641V25.324H24.487C24.555 25.324 24.613 25.328 24.661 25.336C24.713 25.34 24.757 25.352 24.793 25.372C24.833 25.388 24.871 25.414 24.907 25.45C24.943 25.482 24.983 25.526 25.027 25.582L29.575 31.39C29.563 31.25 29.553 31.112 29.545 30.976C29.537 30.84 29.533 30.714 29.533 30.598V25.324H30.955ZM34.6196 26.608V29.176H37.8716V30.466H34.6196V34H32.9996V25.324H38.4716V26.608H34.6196ZM48.1009 29.662C48.1009 30.298 47.9949 30.888 47.7829 31.432C47.5749 31.972 47.2789 32.44 46.8949 32.836C46.5109 33.232 46.0489 33.542 45.5089 33.766C44.9689 33.986 44.3689 34.096 43.7089 34.096C43.0529 34.096 42.4549 33.986 41.9149 33.766C41.3749 33.542 40.9109 33.232 40.5229 32.836C40.1389 32.44 39.8409 31.972 39.6289 31.432C39.4169 30.888 39.3109 30.298 39.3109 29.662C39.3109 29.026 39.4169 28.438 39.6289 27.898C39.8409 27.354 40.1389 26.884 40.5229 26.488C40.9109 26.092 41.3749 25.784 41.9149 25.564C42.4549 25.34 43.0529 25.228 43.7089 25.228C44.1489 25.228 44.5629 25.28 44.9509 25.384C45.3389 25.484 45.6949 25.628 46.0189 25.816C46.3429 26 46.6329 26.226 46.8889 26.494C47.1489 26.758 47.3689 27.054 47.5489 27.382C47.7289 27.71 47.8649 28.066 47.9569 28.45C48.0529 28.834 48.1009 29.238 48.1009 29.662ZM46.4509 29.662C46.4509 29.186 46.3869 28.76 46.2589 28.384C46.1309 28.004 45.9489 27.682 45.7129 27.418C45.4769 27.154 45.1889 26.952 44.8489 26.812C44.5129 26.672 44.1329 26.602 43.7089 26.602C43.2849 26.602 42.9029 26.672 42.5629 26.812C42.2269 26.952 41.9389 27.154 41.6989 27.418C41.4629 27.682 41.2809 28.004 41.1529 28.384C41.0249 28.76 40.9609 29.186 40.9609 29.662C40.9609 30.138 41.0249 30.566 41.1529 30.946C41.2809 31.322 41.4629 31.642 41.6989 31.906C41.9389 32.166 42.2269 32.366 42.5629 32.506C42.9029 32.646 43.2849 32.716 43.7089 32.716C44.1329 32.716 44.5129 32.646 44.8489 32.506C45.1889 32.366 45.4769 32.166 45.7129 31.906C45.9489 31.642 46.1309 31.322 46.2589 30.946C46.3869 30.566 46.4509 30.138 46.4509 29.662Z" fill="#438DE1"/>
<path d="M27.67 50.662C27.67 51.298 27.564 51.882 27.352 52.414C27.14 52.946 26.842 53.404 26.458 53.788C26.074 54.172 25.612 54.47 25.072 54.682C24.532 54.894 23.932 55 23.272 55H19.966V46.324H23.272C23.932 46.324 24.532 46.432 25.072 46.648C25.612 46.86 26.074 47.158 26.458 47.542C26.842 47.922 27.14 48.378 27.352 48.91C27.564 49.442 27.67 50.026 27.67 50.662ZM26.014 50.662C26.014 50.186 25.95 49.76 25.822 49.384C25.698 49.004 25.516 48.684 25.276 48.424C25.04 48.16 24.752 47.958 24.412 47.818C24.076 47.678 23.696 47.608 23.272 47.608H21.586V53.716H23.272C23.696 53.716 24.076 53.646 24.412 53.506C24.752 53.366 25.04 53.166 25.276 52.906C25.516 52.642 25.698 52.322 25.822 51.946C25.95 51.566 26.014 51.138 26.014 50.662ZM30.8274 47.608V50.014H33.8634V51.256H30.8274V53.71H34.6794V55H29.2074V46.324H34.6794V47.608H30.8274ZM39.4683 53.74C39.7683 53.74 40.0203 53.704 40.2243 53.632C40.4283 53.56 40.5903 53.464 40.7103 53.344C40.8343 53.224 40.9223 53.084 40.9743 52.924C41.0303 52.764 41.0583 52.594 41.0583 52.414C41.0583 52.226 41.0283 52.058 40.9683 51.91C40.9083 51.758 40.8143 51.63 40.6863 51.526C40.5583 51.418 40.3923 51.336 40.1883 51.28C39.9883 51.224 39.7463 51.196 39.4623 51.196H37.8363V53.74H39.4683ZM37.8363 47.572V50.08H39.1203C39.6723 50.08 40.0883 49.98 40.3683 49.78C40.6523 49.58 40.7943 49.262 40.7943 48.826C40.7943 48.374 40.6663 48.052 40.4103 47.86C40.1543 47.668 39.7543 47.572 39.2103 47.572H37.8363ZM39.2103 46.324C39.7783 46.324 40.2643 46.378 40.6683 46.486C41.0723 46.594 41.4023 46.748 41.6583 46.948C41.9183 47.148 42.1083 47.39 42.2283 47.674C42.3483 47.958 42.4083 48.278 42.4083 48.634C42.4083 48.838 42.3783 49.034 42.3183 49.222C42.2583 49.406 42.1643 49.58 42.0363 49.744C41.9123 49.904 41.7523 50.05 41.5563 50.182C41.3643 50.314 41.1343 50.426 40.8663 50.518C42.0583 50.786 42.6543 51.43 42.6543 52.45C42.6543 52.818 42.5843 53.158 42.4443 53.47C42.3043 53.782 42.1003 54.052 41.8323 54.28C41.5643 54.504 41.2343 54.68 40.8423 54.808C40.4503 54.936 40.0023 55 39.4983 55H36.2223V46.324H39.2103ZM47.7252 53.698C48.0372 53.698 48.3152 53.646 48.5592 53.542C48.8072 53.438 49.0152 53.292 49.1832 53.104C49.3512 52.916 49.4792 52.688 49.5672 52.42C49.6592 52.152 49.7052 51.852 49.7052 51.52V46.324H51.3192V51.52C51.3192 52.036 51.2352 52.514 51.0672 52.954C50.9032 53.39 50.6652 53.768 50.3532 54.088C50.0452 54.404 49.6692 54.652 49.2252 54.832C48.7812 55.008 48.2812 55.096 47.7252 55.096C47.1652 55.096 46.6632 55.008 46.2192 54.832C45.7752 54.652 45.3972 54.404 45.0852 54.088C44.7772 53.768 44.5392 53.39 44.3712 52.954C44.2072 52.514 44.1252 52.036 44.1252 51.52V46.324H45.7392V51.514C45.7392 51.846 45.7832 52.146 45.8712 52.414C45.9632 52.682 46.0932 52.912 46.2612 53.104C46.4332 53.292 46.6412 53.438 46.8852 53.542C47.1332 53.646 47.4132 53.698 47.7252 53.698ZM60.4039 50.65V54.16C59.9639 54.484 59.4939 54.722 58.9939 54.874C58.4979 55.022 57.9659 55.096 57.3979 55.096C56.6899 55.096 56.0479 54.986 55.4719 54.766C54.8999 54.546 54.4099 54.24 54.0019 53.848C53.5979 53.456 53.2859 52.988 53.0659 52.444C52.8459 51.9 52.7359 51.306 52.7359 50.662C52.7359 50.01 52.8419 49.412 53.0539 48.868C53.2659 48.324 53.5659 47.856 53.9539 47.464C54.3459 47.072 54.8199 46.768 55.3759 46.552C55.9319 46.336 56.5559 46.228 57.2479 46.228C57.5999 46.228 57.9279 46.256 58.2319 46.312C58.5399 46.368 58.8239 46.446 59.0839 46.546C59.3479 46.642 59.5879 46.76 59.8039 46.9C60.0199 47.04 60.2179 47.194 60.3979 47.362L59.9359 48.094C59.8639 48.21 59.7699 48.282 59.6539 48.31C59.5379 48.334 59.4119 48.304 59.2759 48.22C59.1439 48.144 59.0119 48.068 58.8799 47.992C58.7479 47.916 58.5999 47.85 58.4359 47.794C58.2759 47.738 58.0939 47.692 57.8899 47.656C57.6899 47.62 57.4579 47.602 57.1939 47.602C56.7659 47.602 56.3779 47.674 56.0299 47.818C55.6859 47.962 55.3919 48.168 55.1479 48.436C54.9039 48.704 54.7159 49.026 54.5839 49.402C54.4519 49.778 54.3859 50.198 54.3859 50.662C54.3859 51.158 54.4559 51.602 54.5959 51.994C54.7399 52.382 54.9399 52.712 55.1959 52.984C55.4559 53.252 55.7679 53.458 56.1319 53.602C56.4959 53.742 56.9019 53.812 57.3499 53.812C57.6699 53.812 57.9559 53.778 58.2079 53.71C58.4599 53.642 58.7059 53.55 58.9459 53.434V51.862H57.8539C57.7499 51.862 57.6679 51.834 57.6079 51.778C57.5519 51.718 57.5239 51.646 57.5239 51.562V50.65H60.4039Z" fill="#438DE1"/>
</svg>
