<svg xmlns="http://www.w3.org/2000/svg" viewBox="0 0 28 28"><defs><style>.cls-1{fill:#535353;}</style></defs><title>contacts-github</title><g id="Слой_2" data-name="Слой 2"><g id="Слой_1-2" data-name="Слой 1"><path class="cls-1" d="M26.12,7.15A14.19,14.19,0,0,0,21,1.92,13.49,13.49,0,0,0,14,0,13.49,13.49,0,0,0,7,1.92,14.19,14.19,0,0,0,1.88,7.15,14.33,14.33,0,0,0,0,14.35a14.2,14.2,0,0,0,2.67,8.44A13.77,13.77,0,0,0,9.57,28a.81.81,0,0,0,.73-.13.73.73,0,0,0,.24-.56s0-.37,0-1,0-1.19,0-1.66l-.42.07a4.93,4.93,0,0,1-1,.07,8.17,8.17,0,0,1-1.27-.13,2.82,2.82,0,0,1-1.22-.56,2.3,2.3,0,0,1-.8-1.15l-.19-.43A4.57,4.57,0,0,0,5,21.53a2.21,2.21,0,0,0-.79-.71l-.13-.1a1.23,1.23,0,0,1-.24-.22,1.53,1.53,0,0,1-.16-.26c0-.09,0-.16.09-.22a1.26,1.26,0,0,1,.53-.08l.36,0a2.61,2.61,0,0,1,.91.45,3.16,3.16,0,0,1,.88,1,3.35,3.35,0,0,0,1,1.17,2.1,2.1,0,0,0,1.19.4,5.16,5.16,0,0,0,1-.09,3.44,3.44,0,0,0,.82-.28,3,3,0,0,1,.9-1.92,12.56,12.56,0,0,1-1.87-.34,7.09,7.09,0,0,1-1.71-.73A5,5,0,0,1,6.4,18.37a6.07,6.07,0,0,1-1-2,9.57,9.57,0,0,1-.37-2.81A5.54,5.54,0,0,1,6.51,9.75a5.11,5.11,0,0,1,.13-3.81,2.49,2.49,0,0,1,1.56.25,10.16,10.16,0,0,1,1.52.72q.49.3.78.51a12.74,12.74,0,0,1,7,0L18.19,7a10.12,10.12,0,0,1,1.68-.82,2.36,2.36,0,0,1,1.48-.21,5.11,5.11,0,0,1,.14,3.81,5.54,5.54,0,0,1,1.44,3.85,9.69,9.69,0,0,1-.37,2.82,5.88,5.88,0,0,1-1,2,5.1,5.1,0,0,1-1.47,1.24,7.15,7.15,0,0,1-1.72.73,12.56,12.56,0,0,1-1.87.34,3.34,3.34,0,0,1,.95,2.65v3.94a.77.77,0,0,0,.23.56.78.78,0,0,0,.72.13,13.77,13.77,0,0,0,6.9-5.18A14.2,14.2,0,0,0,28,14.35,14.33,14.33,0,0,0,26.12,7.15Z"/></g></g></svg>