<?xml version="1.0" encoding="utf-8"?>
<!-- Generator: Adobe Illustrator 16.0.3, SVG Export Plug-In . SVG Version: 6.00 Build 0)  -->
<!DOCTYPE svg PUBLIC "-//W3C//DTD SVG 1.1//EN" "http://www.w3.org/Graphics/SVG/1.1/DTD/svg11.dtd">
<svg version="1.1" id="Layer_1" xmlns="http://www.w3.org/2000/svg" xmlns:xlink="http://www.w3.org/1999/xlink" x="0px" y="0px"
	 width="355.828px" height="61.324px" viewBox="105.551 252.803 355.828 61.324"
	 enable-background="new 105.551 252.803 355.828 61.324" xml:space="preserve">
<g id="Layer_x0020_1">
	<g id="_117152864">
		<path id="_117154376" fill="#605D5C" d="M201.027,297.507v-6.17c-1.395,0.104-2.742,0.199-4.033,0.287
			c-1.284,0.088-2.463,0.136-3.523,0.145c-0.917,0.008-1.746-0.017-2.487-0.08c-0.741-0.072-1.395-0.224-1.953-0.471
			c-0.566-0.247-1.028-0.646-1.411-1.188c-0.375-0.542-0.653-1.283-0.845-2.224s-0.287-2.145-0.287-3.595v-6.983
			c0-1.459,0.096-2.654,0.287-3.595c0.191-0.949,0.47-1.69,0.845-2.224c0.383-0.542,0.845-0.941,1.411-1.188
			c0.558-0.247,1.211-0.406,1.953-0.47c0.741-0.064,1.57-0.087,2.487-0.08c0.51,0,1.116,0.008,1.81,0.032
			c0.701,0.016,1.411,0.048,2.145,0.08c0.741,0.032,1.426,0.072,2.056,0.112c0.638,0.04,1.156,0.072,1.546,0.111v-6.074
			c-0.391-0.119-0.885-0.231-1.475-0.326c-0.598-0.104-1.26-0.192-1.985-0.263c-0.717-0.072-1.466-0.127-2.248-0.167
			c-0.773-0.04-1.53-0.056-2.28-0.056c-1.889-0.007-3.619,0.112-5.181,0.359c-1.57,0.247-2.973,0.678-4.193,1.292
			c-1.219,0.606-2.256,1.443-3.101,2.511s-1.491,2.423-1.929,4.058c-0.438,1.626-0.662,3.595-0.662,5.891v6.983
			c0,2.295,0.224,4.264,0.662,5.891c0.438,1.634,1.084,2.988,1.929,4.057s1.881,1.905,3.101,2.512
			c1.22,0.613,2.623,1.035,4.193,1.291c1.563,0.247,3.292,0.366,5.181,0.358c0.75,0,1.506-0.024,2.28-0.063
			c0.782-0.032,1.531-0.088,2.248-0.168c0.725-0.071,1.387-0.151,1.985-0.255C200.143,297.74,200.637,297.627,201.027,297.507
			L201.027,297.507z M232.29,285.55v-21.857h-8.417v21.714c0.016,1.521-0.151,2.742-0.494,3.666
			c-0.343,0.917-0.933,1.586-1.762,1.993c-0.837,0.415-1.977,0.614-3.436,0.606c-1.458,0.008-2.599-0.191-3.428-0.606
			c-0.837-0.407-1.426-1.076-1.77-1.993c-0.343-0.924-0.502-2.145-0.494-3.666v-21.714h-8.465v21.857
			c0,2.432,0.311,4.473,0.925,6.131c0.622,1.666,1.53,2.988,2.726,3.985c1.204,0.996,2.687,1.714,4.44,2.152
			c1.762,0.438,3.778,0.653,6.066,0.646c2.288,0.008,4.305-0.207,6.058-0.646c1.754-0.438,3.229-1.156,4.424-2.152
			c1.196-0.997,2.097-2.319,2.71-3.985C231.979,290.023,232.29,287.982,232.29,285.55L232.29,285.55z M263.888,288.134v-1.531
			c0.016-1.004-0.087-1.921-0.311-2.75c-0.215-0.821-0.622-1.539-1.212-2.16c-0.59-0.614-1.435-1.116-2.542-1.499
			c0.997-0.455,1.77-1.013,2.32-1.682c0.55-0.67,0.932-1.419,1.147-2.249c0.215-0.837,0.319-1.729,0.311-2.67v-1.148
			c0-1.571-0.215-2.886-0.638-3.938c-0.422-1.06-1.028-1.913-1.817-2.551c-0.797-0.646-1.754-1.132-2.878-1.458
			c-1.116-0.327-2.383-0.542-3.778-0.654c-1.403-0.111-2.925-0.159-4.567-0.152h-13.248v34.101h12.77
			c1.953,0.008,3.699-0.055,5.253-0.191c1.547-0.127,2.894-0.383,4.05-0.758c1.148-0.374,2.104-0.916,2.87-1.633
			c0.757-0.718,1.331-1.65,1.706-2.807C263.697,291.25,263.888,289.832,263.888,288.134L263.888,288.134z M255.566,288.134
			c0.008,1.043-0.175,1.841-0.542,2.391c-0.367,0.558-0.973,0.94-1.817,1.148c-0.845,0.199-1.969,0.295-3.38,0.287h-4.878v-9.136
			h5.07c1.426-0.008,2.542,0.096,3.355,0.311c0.806,0.215,1.379,0.598,1.714,1.147c0.327,0.551,0.495,1.324,0.479,2.32V288.134
			L255.566,288.134z M255.422,273.929c0.008,0.67-0.064,1.244-0.215,1.73c-0.151,0.478-0.423,0.876-0.813,1.188
			c-0.391,0.311-0.933,0.542-1.635,0.685c-0.701,0.151-1.602,0.223-2.694,0.223h-5.118v-8.13h5.118c1.132,0,2.048,0.048,2.758,0.151
			c0.702,0.104,1.244,0.271,1.626,0.51c0.375,0.239,0.637,0.565,0.773,0.972c0.144,0.407,0.208,0.917,0.199,1.523V273.929z
			 M297.016,297.794l-9.278-34.101h-13.344l-9.23,34.101h8.992l2.2-8.227h9.565l2.152,8.227H297.016z M284.724,283.351h-7.27
			l2.439-9.422c0.231-0.917,0.438-1.857,0.606-2.814c0.167-0.949,0.334-1.865,0.494-2.734h0.191
			c0.167,0.869,0.335,1.785,0.518,2.734c0.184,0.957,0.391,1.897,0.63,2.814L284.724,283.351L284.724,283.351z"/>
		<g>
			<path id="_117154304" fill="#006BAC" d="M130.317,299.876c-2.339,0.629-4.744-0.762-5.372-3.101l-5.146-19.207
				c-0.627-2.338,0.762-4.745,3.101-5.372l19.207-5.146c2.341-0.627,4.745,0.761,5.372,3.102l5.147,19.206
				c0.627,2.341-0.762,4.747-3.101,5.373L130.317,299.876L130.317,299.876z"/>
			<path id="_117154232" fill="#605D5C" d="M164.738,278.309l-6.091-6.091c0.285,1.006,0.316,2.097,0.026,3.18l-7.042,26.284
				c-0.006,0.022-0.014,0.045-0.021,0.068l13.129-13.131C167.585,285.773,167.585,281.156,164.738,278.309L164.738,278.309z"/>
			<path id="_117154040" fill="#605D5C" d="M113.752,291.533l7.042-26.284c0.007-0.024,0.016-0.047,0.023-0.071l-13.131,13.132
				c-2.848,2.847-2.848,7.463,0,10.31l6.092,6.093C113.494,293.705,113.462,292.615,113.752,291.533z"/>
			<path id="_117153944" fill="#605D5C" d="M128.146,261.005l26.283,7.042c0.025,0.006,0.046,0.015,0.07,0.022l-13.131-13.13
				c-2.847-2.848-7.463-2.848-10.311,0l-6.093,6.093C125.971,260.746,127.062,260.715,128.146,261.005L128.146,261.005z"/>
			<path id="_117153896" fill="#605D5C" d="M144.279,305.926l-26.283-7.042c-0.024-0.006-0.046-0.017-0.069-0.023l13.13,13.131
				c2.848,2.848,7.464,2.848,10.311,0l6.091-6.092C146.454,306.185,145.362,306.216,144.279,305.926z"/>
		</g>
		<path id="_117152960" fill="#006BAC" d="M307.417,297.794v-6.41h-4.543v6.41H307.417z M330.476,288.037v-6.408
			c0-1.81-0.158-3.348-0.479-4.6c-0.318-1.251-0.813-2.264-1.475-3.029c-0.67-0.765-1.514-1.323-2.543-1.666
			c-1.035-0.343-2.264-0.519-3.682-0.51c-0.734,0-1.547,0.095-2.439,0.271c-0.9,0.175-1.811,0.43-2.727,0.749
			c-0.908,0.319-1.754,0.702-2.535,1.132v-1.578h-4.018v35.153l4.4-0.717v-8.801c0.727,0.119,1.531,0.207,2.408,0.256
			c0.877,0.055,1.77,0.079,2.662,0.079c1.26,0.008,2.424-0.071,3.49-0.247c1.068-0.168,2.033-0.463,2.887-0.893
			c0.852-0.431,1.578-1.037,2.184-1.817c0.605-0.773,1.061-1.771,1.379-2.974C330.308,291.225,330.476,289.759,330.476,288.037
			L330.476,288.037L330.476,288.037z M326.029,287.941c0,1.459-0.152,2.646-0.439,3.548c-0.287,0.909-0.701,1.603-1.234,2.081
			c-0.535,0.478-1.172,0.797-1.914,0.972c-0.748,0.167-1.578,0.247-2.486,0.239c-0.422,0-0.885-0.008-1.363-0.023
			c-0.486-0.017-1.027-0.041-1.627-0.08c-0.59-0.049-1.273-0.104-2.031-0.184v-17.505c0.629-0.303,1.322-0.574,2.064-0.813
			c0.748-0.239,1.498-0.422,2.248-0.558c0.748-0.135,1.451-0.207,2.096-0.207c1.26-0.008,2.232,0.2,2.918,0.629
			c0.678,0.431,1.148,1.14,1.402,2.137c0.264,0.988,0.383,2.312,0.367,3.978V287.941L326.029,287.941z M337.658,297.794v-35.871
			l-4.4,0.718v35.153H337.658z M359.376,297.794v-17.17c0.008-1.196-0.063-2.264-0.207-3.213c-0.143-0.948-0.406-1.77-0.789-2.471
			c-0.375-0.702-0.908-1.283-1.609-1.738c-0.695-0.462-1.588-0.813-2.68-1.036c-1.092-0.231-2.422-0.343-3.992-0.343
			c-0.918,0-1.803,0.048-2.656,0.127c-0.852,0.08-1.648,0.175-2.375,0.295c-0.725,0.119-1.346,0.239-1.881,0.367
			c-0.525,0.12-0.916,0.223-1.172,0.311v2.87c0.248-0.04,0.639-0.08,1.164-0.135c0.518-0.056,1.133-0.104,1.842-0.159
			c0.701-0.048,1.434-0.096,2.215-0.128c0.773-0.04,1.539-0.056,2.289-0.056c1.188-0.008,2.145,0.072,2.869,0.231
			c0.725,0.159,1.275,0.43,1.65,0.829c0.375,0.391,0.621,0.933,0.758,1.626c0.127,0.685,0.182,1.562,0.174,2.623v1.913l-4.209,0.479
			c-1.697,0.191-3.195,0.414-4.502,0.678c-1.301,0.263-2.393,0.637-3.277,1.132c-0.893,0.494-1.563,1.18-2.008,2.057
			c-0.455,0.877-0.686,2.032-0.686,3.451v1.817c0.008,1.459,0.27,2.654,0.789,3.571c0.525,0.909,1.291,1.587,2.295,2.009
			c0.996,0.431,2.225,0.646,3.658,0.638c1.42-0.008,2.83-0.239,4.242-0.693c1.41-0.454,2.781-1.067,4.129-1.841v1.961H359.376z
			 M355.072,293.298c-0.295,0.175-0.686,0.366-1.188,0.582c-0.494,0.215-1.061,0.422-1.682,0.629
			c-0.621,0.199-1.268,0.367-1.93,0.494c-0.67,0.136-1.314,0.199-1.943,0.207c-0.742,0.009-1.389-0.071-1.945-0.246
			c-0.559-0.176-0.996-0.502-1.309-0.973c-0.311-0.471-0.471-1.148-0.477-2.033v-1.482c-0.008-0.861,0.094-1.555,0.303-2.08
			c0.207-0.519,0.564-0.925,1.061-1.212c0.492-0.287,1.17-0.511,2.023-0.67c0.861-0.159,1.93-0.303,3.213-0.438l3.873-0.43V293.298z
			 M375.789,297.746v-2.965c-0.264,0.032-0.607,0.063-1.029,0.096c-0.422,0.023-0.877,0.047-1.355,0.064
			c-0.471,0.023-0.924,0.031-1.346,0.031c-0.791,0.008-1.371-0.072-1.754-0.247c-0.391-0.176-0.646-0.495-0.766-0.957
			s-0.168-1.132-0.16-2.001v-15.831h6.457l1.053-3.539h-7.51v-6.504l-4.4,0.765v5.739h-4.83v3.539h4.83v16.022
			c-0.008,1.643,0.184,2.934,0.582,3.875c0.398,0.932,1.061,1.594,1.979,1.977c0.916,0.383,2.15,0.574,3.705,0.558
			c0.662,0,1.291-0.04,1.889-0.112c0.6-0.063,1.133-0.15,1.596-0.238C375.191,297.921,375.541,297.826,375.789,297.746z
			 M391.769,272.397h-7.031v-2.965c-0.008-0.765,0.016-1.427,0.072-1.977c0.055-0.558,0.176-1.012,0.365-1.372
			c0.186-0.358,0.479-0.622,0.879-0.797c0.391-0.175,0.924-0.255,1.602-0.255c0.486,0,0.98,0,1.49,0.016
			c0.51,0.008,0.996,0.023,1.451,0.048c0.453,0.016,0.846,0.047,1.172,0.079v-2.821c-0.326-0.088-0.758-0.176-1.291-0.271
			c-0.527-0.096-1.109-0.176-1.738-0.248c-0.639-0.063-1.268-0.104-1.896-0.104c-1.436,0.008-2.592,0.191-3.469,0.574
			c-0.869,0.375-1.529,0.9-1.977,1.586c-0.445,0.686-0.75,1.499-0.9,2.439c-0.152,0.94-0.215,1.969-0.207,3.101v2.965h-4.545v3.539
			h4.545v21.858h4.447v-21.858h6.074L391.769,272.397L391.769,272.397z M412.101,288.324v-6.456c-0.008-2.4-0.422-4.336-1.244-5.811
			c-0.813-1.483-2.008-2.559-3.57-3.237c-1.57-0.67-3.467-1.004-5.707-0.996c-2.256-0.008-4.162,0.326-5.723,0.996
			c-1.563,0.678-2.758,1.754-3.572,3.237c-0.813,1.475-1.219,3.411-1.227,5.811v6.456c0.008,2.399,0.414,4.336,1.227,5.811
			c0.814,1.483,2.01,2.559,3.572,3.236c1.561,0.67,3.467,1.005,5.723,0.997c2.24,0.008,4.137-0.327,5.707-0.997
			c1.563-0.678,2.758-1.753,3.57-3.236C411.679,292.66,412.093,290.723,412.101,288.324z M407.701,288.037
			c0,1.379-0.15,2.512-0.445,3.389s-0.709,1.562-1.252,2.04c-0.541,0.479-1.188,0.813-1.938,1.005
			c-0.74,0.184-1.578,0.271-2.486,0.262c-0.908,0.009-1.746-0.078-2.496-0.262c-0.756-0.191-1.402-0.526-1.951-1.005
			c-0.551-0.479-0.975-1.163-1.268-2.04c-0.305-0.877-0.455-2.01-0.455-3.389v-5.882c0-1.371,0.15-2.487,0.455-3.364
			c0.293-0.885,0.717-1.563,1.268-2.048c0.549-0.487,1.195-0.821,1.951-1.013c0.75-0.191,1.588-0.279,2.496-0.271
			c0.908-0.008,1.746,0.08,2.486,0.271c0.75,0.191,1.396,0.526,1.938,1.013c0.543,0.486,0.957,1.164,1.252,2.048
			c0.295,0.877,0.445,1.993,0.445,3.364V288.037z M427.652,276.08v-4.256c-0.215-0.008-0.605,0.008-1.18,0.048
			s-1.268,0.151-2.088,0.327c-0.822,0.184-1.707,0.478-2.656,0.893c-0.955,0.423-1.912,0.997-2.877,1.746v-2.439h-4.064v25.397h4.4
			v-19.61c0.797-0.518,1.641-0.925,2.51-1.22c0.877-0.287,1.723-0.494,2.527-0.622c0.813-0.128,1.521-0.199,2.129-0.231
			C426.958,276.088,427.388,276.072,427.652,276.08z M461.376,297.794v-17.553c0.016-1.307-0.057-2.479-0.215-3.516
			c-0.152-1.036-0.463-1.921-0.926-2.646c-0.463-0.733-1.156-1.291-2.064-1.674c-0.916-0.382-2.127-0.582-3.635-0.582
			c-1.443,0.016-2.83,0.287-4.16,0.821c-1.332,0.534-2.576,1.244-3.73,2.145c-0.52-1.068-1.236-1.826-2.152-2.288
			c-0.916-0.462-2.064-0.686-3.443-0.677c-0.877,0-1.777,0.12-2.688,0.351c-0.908,0.223-1.801,0.542-2.678,0.957
			c-0.885,0.415-1.723,0.9-2.527,1.467v-2.2h-4.16v25.397h4.4v-20.088c0.678-0.326,1.387-0.645,2.135-0.957
			c0.75-0.318,1.5-0.574,2.232-0.781c0.734-0.208,1.412-0.311,2.041-0.319c0.709-0.008,1.283,0.072,1.705,0.223
			c0.424,0.159,0.742,0.406,0.949,0.765c0.207,0.351,0.352,0.821,0.414,1.411c0.064,0.59,0.096,1.323,0.088,2.192v17.553h4.4
			v-17.553c0-0.367,0-0.765-0.008-1.188c0-0.431-0.016-0.869-0.039-1.299c0.629-0.359,1.291-0.693,1.992-1.012
			c0.701-0.319,1.41-0.582,2.121-0.781c0.709-0.2,1.395-0.303,2.055-0.311c0.965-0.008,1.699,0.12,2.201,0.398
			c0.51,0.271,0.854,0.749,1.035,1.435c0.184,0.685,0.271,1.634,0.256,2.854v17.458H461.376L461.376,297.794z"/>
	</g>
</g>
</svg>
