<svg width="132" height="41" viewBox="0 0 132 41" fill="none" xmlns="http://www.w3.org/2000/svg">
<path d="M104.174 10.0176H108.536V30.1256H104.174V10.0176Z" fill="#17124B"/>
<path d="M126.521 30.1256L121.504 23.2557L116.486 30.1256H111.43L118.995 19.7821L111.816 10.0176H116.834L121.465 16.3858L126.096 10.0176H131.152L123.974 19.8207L131.5 30.1256H126.521Z" fill="#17124B"/>
<path d="M91.0134 9.74739C88.5047 9.74739 86.2276 10.8666 84.6838 12.6034C83.14 10.8666 80.9015 9.74739 78.3542 9.74739C73.7228 9.74739 69.9404 13.5297 69.9404 18.1611V30.1642H74.1473V18.1611C74.1473 15.8454 76.0385 13.9543 78.3542 13.9543C80.6699 13.9543 82.5611 15.8454 82.5611 18.1611V30.1642H86.7679V18.1611C86.7679 15.8454 88.6591 13.9543 90.9748 13.9543C93.2905 13.9543 95.1817 15.8454 95.1817 18.1611V30.1642H99.3886V18.1611C99.4272 13.4911 95.6448 9.74739 91.0134 9.74739Z" fill="#17124B"/>
<path d="M56.2391 36.6096H52.9585V32.5571L56.2391 32.5185C59.5969 32.5185 60.8319 30.8975 60.8319 27.5398V10.0176H65.2704V27.5784C65.2318 33.4062 62.0284 36.6096 56.2391 36.6096Z" fill="#17124B"/>
<path d="M14.4794 2.56869L7.37793 9.6702L9.96381 12.2947L17.0653 5.19316C18.8021 3.45638 21.581 3.41778 23.3949 5.07737L25.5563 7.20011L28.1421 4.61423L25.9808 2.4529C22.7774 -0.634714 17.6442 -0.596118 14.4794 2.56869Z" fill="#FC1264"/>
<path d="M22.932 30.5116L30.6897 22.754L31.3844 22.0593C32.4264 21.0172 32.4264 19.2804 31.3844 18.2383L30.6897 17.5436L23.0092 9.86318L22.3145 9.16846C21.2724 8.12639 19.5356 8.12639 18.4936 9.16846L17.7989 9.86318L10.0026 17.5436L9.30792 18.2383C8.26585 19.2804 8.26585 21.0172 9.30792 22.0593L10.0026 22.754L17.6831 30.4344L18.3778 31.1291C19.4199 32.1712 21.1566 32.1712 22.1987 31.1291L22.932 30.5116ZM12.6271 20.1681L20.3847 12.4491L28.0652 20.1295L20.3075 27.8871L12.6271 20.1681Z" fill="#17124B"/>
<path d="M23.5495 35.143C21.8127 36.8798 19.0339 36.9184 17.2199 35.2588L15.0586 33.0975L12.4341 35.722L14.5954 37.8833C17.8374 40.9709 22.9706 40.9323 26.1354 37.7289L33.2755 30.5888L30.6896 28.0029L23.5495 35.143Z" fill="#25CDE3"/>
<path d="M33.314 25.3784L34.2017 26.2661L33.314 25.3784Z" fill="#25CDE3"/>
<path d="M4.75342 12.2947L6.02706 13.6069L4.75342 12.2947Z" fill="#FC1264"/>
<path d="M5.33232 23.4101C3.59554 21.6733 3.55694 18.8944 5.21654 17.0805L7.37787 14.9191L4.7534 12.2947L2.59207 14.456C-0.49555 17.698 -0.456954 22.8312 2.74645 25.996L9.84796 33.0975L12.4338 30.5116L5.33232 23.4101Z" fill="#FDB42B"/>
<path d="M37.9452 14.3016L30.8437 7.20011L28.2578 9.78599L35.3593 16.8875C37.0961 18.6243 37.1347 21.4031 35.4751 23.2171L33.3524 25.3784L35.9383 27.9643L38.0996 25.803C41.1486 22.5996 41.11 17.505 37.9452 14.3016Z" fill="#22D685"/>
</svg>
