<svg xmlns="http://www.w3.org/2000/svg" viewBox="0 0 40 40"><defs><style>.cls-1{fill:#fccb6e;}.cls-2{fill:none;stroke:#000;stroke-miterlimit:10;stroke-width:1.3px;}</style></defs><title>Ресурс 4</title><g id="Слой_2" data-name="Слой 2"><g id="Слой_1-2" data-name="Слой 1"><circle class="cls-1" cx="20" cy="20" r="20"/><polygon class="cls-2" points="9.26 28.39 31.38 28.39 31.38 19.53 25.23 19.53 25.23 10.61 16.37 10.61 16.37 16.83 11.93 16.83 11.93 20.39 9.26 20.39 9.26 28.39"/><line class="cls-2" x1="16.37" y1="16.83" x2="16.37" y2="28.83"/><line class="cls-2" x1="25.23" y1="19.76" x2="25.23" y2="28.74"/><line class="cls-2" x1="18.59" y1="12.84" x2="18.59" y2="14.61"/><line class="cls-2" x1="18.59" y1="16.39" x2="18.59" y2="18.17"/><line class="cls-2" x1="18.59" y1="19.95" x2="18.59" y2="21.72"/><line class="cls-2" x1="18.59" y1="23.5" x2="18.59" y2="25.28"/><line class="cls-2" x1="20.81" y1="12.84" x2="20.81" y2="14.61"/><line class="cls-2" x1="20.81" y1="16.39" x2="20.81" y2="18.17"/><line class="cls-2" x1="20.81" y1="19.95" x2="20.81" y2="21.72"/><line class="cls-2" x1="20.81" y1="23.5" x2="20.81" y2="25.28"/><line class="cls-2" x1="23.03" y1="12.84" x2="23.03" y2="14.61"/><line class="cls-2" x1="23.03" y1="16.39" x2="23.03" y2="18.17"/><line class="cls-2" x1="23.03" y1="19.95" x2="23.03" y2="21.72"/><line class="cls-2" x1="23.03" y1="23.5" x2="23.03" y2="25.28"/><line class="cls-2" x1="27.48" y1="22.61" x2="29.26" y2="22.61"/><line class="cls-2" x1="27.48" y1="25.28" x2="29.26" y2="25.28"/></g></g></svg>