<svg width="46" height="43" viewBox="0 0 46 43" fill="none" xmlns="http://www.w3.org/2000/svg">
<path d="M24 43C27.2945 42.5285 30.1826 39.0645 32 33.9488C29.3728 33.356 26.6919 33.0379 24 33V43Z" fill="#438DE1"/>
<path d="M28.7276 41.8095C28.9377 41.7531 29.147 41.6962 29.3546 41.6338C29.5298 41.5814 29.7026 41.525 29.8754 41.4689C30.0798 41.4034 30.2834 41.336 30.4862 41.2645C30.6589 41.2035 30.8301 41.1388 31.0017 41.0741C31.1996 40.9969 31.3971 40.9201 31.5926 40.8429C31.7633 40.7733 31.9329 40.7003 32.1024 40.6269C32.2942 40.543 32.4853 40.4575 32.6747 40.3687C32.8409 40.29 33.0068 40.2098 33.1731 40.1274C33.3593 40.0348 33.5442 39.9403 33.7279 39.8432C33.8942 39.7559 34.0544 39.6682 34.2162 39.5779C34.3963 39.4751 34.5756 39.3724 34.7536 39.2696C34.913 39.1755 35.072 39.0799 35.229 38.9813C35.4042 38.8717 35.5769 38.7577 35.7489 38.6436C35.9034 38.5409 36.0571 38.4385 36.208 38.3354C36.3743 38.2164 36.5447 38.0933 36.7113 37.9699C36.8594 37.8604 37.007 37.7516 37.1526 37.639C37.3185 37.5111 37.4775 37.3786 37.6385 37.2461C37.7796 37.1298 37.9216 37.0146 38.0595 36.8953C38.2181 36.7579 38.3726 36.6156 38.5271 36.4745C38.6609 36.3517 38.7964 36.2309 38.9274 36.1052C38.9517 36.0819 38.9749 36.0566 39 36.0326C37.1883 35.1642 35.2801 34.4825 33.3086 34C32.2833 37.0345 30.4586 39.7845 28 42C28.0673 41.9838 28.1347 41.9706 28.202 41.9545C28.3796 41.9082 28.554 41.8573 28.7276 41.8095Z" fill="#438DE1"/>
<path d="M46 22H35.7295C35.6906 25.6109 35.1088 29.2003 34 32.6707C36.2611 33.2145 38.4431 33.9963 40.5009 35C43.8795 31.3334 45.8135 26.7618 46 22V22Z" fill="#438DE1"/>
<path d="M24 21H34C33.9609 17.6153 33.4507 14.2515 32.484 11C29.6995 11.6181 26.8556 11.9482 24 11.9848V21Z" fill="#438DE1"/>
<path d="M24 0V10C26.6919 9.96175 29.3728 9.64398 32 9.05124C30.1826 3.93554 27.2945 0.471537 24 0Z" fill="#438DE1"/>
<path d="M24 31.0149C26.8556 31.0519 29.6995 31.3819 32.484 32C33.4507 28.7486 33.9609 25.3846 34 22H24V31.0149Z" fill="#438DE1"/>
<path d="M40.5009 8C38.4431 9.00365 36.2611 9.78548 34 10.3293C35.1088 13.7997 35.6906 17.3891 35.7295 21H46C45.813 16.2386 43.8791 11.667 40.5009 8Z" fill="#438DE1"/>
<path d="M39 6.96556C38.9757 6.9426 38.9526 6.91776 38.9287 6.89404C38.7973 6.76833 38.6611 6.64713 38.5274 6.5248C38.3734 6.38365 38.2197 6.24099 38.0608 6.10398C37.9234 5.98504 37.7812 5.87249 37.6401 5.75393C37.4792 5.62144 37.3183 5.48781 37.1529 5.35984C37.0094 5.24729 36.8623 5.13964 36.7163 5.03162C36.5502 4.90665 36.3799 4.78244 36.2089 4.66312C36.0589 4.55811 35.9069 4.45648 35.7541 4.35485C35.5806 4.23892 35.4063 4.12337 35.2296 4.01308C35.0743 3.91597 34.9166 3.82112 34.759 3.72815C34.5794 3.62087 34.4003 3.51586 34.2174 3.41423C34.0573 3.32502 33.8956 3.23694 33.7335 3.1515C33.5478 3.05288 33.3618 2.95728 33.1741 2.86393C33.0079 2.78677 32.8421 2.70283 32.676 2.62567C32.485 2.53609 32.2925 2.44989 32.0951 2.3652C31.9289 2.2918 31.7603 2.22029 31.5892 2.15065C31.3927 2.06973 31.194 1.99671 30.9958 1.91954C30.8248 1.8548 30.6545 1.79082 30.4819 1.72984C30.2804 1.65832 30.0761 1.59132 29.8718 1.52583C29.6992 1.46937 29.5265 1.41329 29.3514 1.36059C29.1439 1.29811 28.9363 1.24127 28.7231 1.18406C28.5504 1.13701 28.377 1.08921 28.2023 1.0463C28.1354 1.02936 28.0673 1.01619 28 1C30.4571 3.21549 32.2803 5.96509 33.3054 9C35.2778 8.51746 37.1877 7.83542 39 6.96556Z" fill="#438DE1"/>
<path d="M0 21H10.2709C10.3098 17.3891 10.8916 13.7997 12 10.3293C9.73928 9.78586 7.5572 9.00403 5.49934 8C2.1206 11.6666 0.186546 16.2386 0 21Z" fill="#438DE1"/>
<path d="M22 43V33C19.3081 33.0383 16.6272 33.356 14 33.9488C15.817 39.0645 18.7055 42.5285 22 43Z" fill="#438DE1"/>
<path d="M22 22H12C12.0391 25.3846 12.5489 28.7486 13.516 32C16.3005 31.3816 19.144 31.0515 22 31.0149V22Z" fill="#438DE1"/>
<path d="M22 0C18.7055 0.471537 15.817 3.93554 14 9.05124C16.6272 9.64436 19.3081 9.96213 22 10V0Z" fill="#438DE1"/>
<path d="M22 11.9848C19.1444 11.9482 16.3005 11.6181 13.516 11C12.5489 14.2515 12.0391 17.6153 12 21H22V11.9848Z" fill="#438DE1"/>
<path d="M18 1C17.9327 1.01619 17.8653 1.02938 17.798 1.04557C17.6219 1.08926 17.4483 1.13784 17.273 1.18492C17.0645 1.24141 16.8576 1.29828 16.6483 1.36004C16.4719 1.41314 16.2982 1.46964 16.1246 1.52575C15.9214 1.59241 15.7177 1.6587 15.5165 1.7295C15.3429 1.79126 15.1717 1.85529 14.9997 1.92082C14.8021 1.99802 14.6042 2.07523 14.4091 2.15206C14.2379 2.22173 14.0687 2.29479 13.8991 2.36823C13.7073 2.45222 13.5162 2.53771 13.3267 2.62659C13.1604 2.7053 12.9941 2.7859 12.8282 2.868C12.642 2.96064 12.4574 3.05555 12.274 3.15272C12.1077 3.23896 11.9442 3.32746 11.784 3.41785C11.6035 3.51878 11.425 3.62311 11.2473 3.7263C11.0875 3.8212 10.9289 3.91686 10.7719 4.01554C10.5966 4.12513 10.4238 4.23924 10.2518 4.35336C10.0972 4.45617 9.9435 4.55861 9.79219 4.66218C9.62222 4.78081 9.45995 4.90434 9.28876 5.02749C9.1411 5.13709 8.99222 5.24593 8.8478 5.35929C8.68148 5.48658 8.52368 5.6184 8.36344 5.75021C8.22146 5.86771 8.07826 5.98183 7.93952 6.10347C7.78172 6.24018 7.62797 6.38217 7.47382 6.52302C7.33995 6.6458 7.20364 6.76707 7.07221 6.89323C7.04827 6.91658 7.02515 6.94219 7 6.96592C8.8117 7.83514 10.7208 8.51718 12.6927 9C13.7182 5.96526 15.5421 3.21561 18 1Z" fill="#438DE1"/>
<path d="M7.46601 36.4736C7.62053 36.6147 7.77424 36.7574 7.93282 36.8948C8.07072 37.0133 8.21267 37.1259 8.35421 37.2444C8.51523 37.3773 8.67624 37.5105 8.84172 37.6385C8.98529 37.7503 9.1317 37.8583 9.27852 37.9667C9.4448 38.0916 9.61069 38.2159 9.7867 38.3359C9.93636 38.4402 10.0885 38.541 10.2405 38.6446C10.4141 38.7601 10.5893 38.8757 10.7662 38.9867C10.9215 39.0838 11.0793 39.1786 11.237 39.272C11.4167 39.3789 11.596 39.4839 11.7789 39.5855C11.9391 39.6751 12.1009 39.7628 12.2631 39.8486C12.4489 39.9472 12.6351 40.0428 12.8228 40.1358C12.9887 40.2129 13.155 40.2969 13.3213 40.374C13.5123 40.4636 13.705 40.5498 13.9025 40.6349C14.0688 40.7075 14.2375 40.779 14.4086 40.849C14.6053 40.9299 14.8037 41.003 15.0024 41.0801C15.1735 41.1449 15.3439 41.2088 15.5167 41.2698C15.7182 41.3417 15.9226 41.4087 16.1271 41.4742C16.2998 41.5303 16.4726 41.5867 16.6478 41.639C16.8555 41.7015 17.0631 41.7587 17.2765 41.8156C17.4492 41.8626 17.6228 41.9104 17.7972 41.9537C17.8645 41.9706 17.9327 41.9838 18 42C15.5414 39.7842 13.7171 37.0348 12.6914 34C10.7199 34.4829 8.8113 35.1645 7 36.0336C7.02433 36.0566 7.04745 36.0814 7.07179 36.1051C7.1963 36.2301 7.33054 36.3513 7.46601 36.4736Z" fill="#438DE1"/>
<path d="M5.49934 35C7.5572 33.9963 9.73928 33.2145 12 32.6707C10.8916 29.2003 10.3098 25.6109 10.2709 22H0C0.186964 26.7614 2.1206 31.333 5.49934 35Z" fill="#438DE1"/>
</svg>
