<svg width="69" height="69" viewBox="0 0 69 69" fill="none" xmlns="http://www.w3.org/2000/svg">
<rect x="9" y="8" width="23" height="22" rx="1" stroke="#438DE1" stroke-width="2" stroke-linecap="round" stroke-linejoin="round"/>
<path d="M27 12C26.6554 12 18.732 12 13.9982 12C13.4459 12 13 12.4477 13 13V25" stroke="#438DE1" stroke-width="2" stroke-linecap="round" stroke-linejoin="round"/>
<rect x="12" y="4" width="6" height="4" rx="1" stroke="#438DE1" stroke-width="2" stroke-linecap="round" stroke-linejoin="round"/>
<rect x="23" y="4" width="6" height="4" rx="1" stroke="#438DE1" stroke-width="2" stroke-linecap="round" stroke-linejoin="round"/>
<rect x="37" y="20" width="23" height="22" rx="1" stroke="#438DE1" stroke-width="2" stroke-linecap="round" stroke-linejoin="round"/>
<path d="M55 24C54.6554 24 46.732 24 41.9982 24C41.4459 24 41 24.4477 41 25V37" stroke="#438DE1" stroke-width="2" stroke-linecap="round" stroke-linejoin="round"/>
<rect x="40" y="16" width="6" height="4" rx="1" stroke="#438DE1" stroke-width="2" stroke-linecap="round" stroke-linejoin="round"/>
<rect x="51" y="16" width="6" height="4" rx="1" stroke="#438DE1" stroke-width="2" stroke-linecap="round" stroke-linejoin="round"/>
<rect x="13" y="42" width="47" height="23" rx="1" stroke="#438DE1" stroke-width="2" stroke-linecap="round" stroke-linejoin="round"/>
<path d="M55 46C54.0216 46 30.538 46 17.9955 46C17.4432 46 17 46.4477 17 47V60" stroke="#438DE1" stroke-width="2" stroke-linecap="round" stroke-linejoin="round"/>
<rect x="16" y="38" width="6" height="4" rx="1" stroke="#438DE1" stroke-width="2" stroke-linecap="round" stroke-linejoin="round"/>
<rect x="27" y="38" width="6" height="4" rx="1" stroke="#438DE1" stroke-width="2" stroke-linecap="round" stroke-linejoin="round"/>
</svg>
