<svg width="72" height="57" viewBox="0 0 72 57" fill="none" xmlns="http://www.w3.org/2000/svg">
<path d="M70.8738 43.6906L69.3296 43.4287C69.1688 42.9093 68.962 42.4084 68.7092 41.9304L69.6192 40.6574C70.0052 40.1151 69.9455 39.3752 69.4721 38.9064L68.1026 37.5369C67.8452 37.2795 67.5051 37.137 67.1421 37.137C66.8571 37.137 66.586 37.2244 66.3562 37.3898L65.0786 38.2998C64.5822 38.0378 64.0629 37.8218 63.5252 37.661L63.2679 36.1352C63.1576 35.478 62.5923 35 61.9259 35H59.9911C59.3247 35 58.7595 35.478 58.6492 36.1352L58.3826 37.6977C57.8679 37.8586 57.3669 38.07 56.889 38.3273L55.6252 37.4174C55.3954 37.2519 55.1196 37.1646 54.8347 37.1646C54.4716 37.1646 54.127 37.3071 53.8742 37.5644L52.5001 38.934C52.0313 39.4028 51.967 40.1427 52.353 40.685L53.2722 41.9764C53.0194 42.459 52.8172 42.9599 52.6609 43.4792L51.1351 43.7366C50.478 43.8469 50 44.4122 50 45.0785V47.0134C50 47.6798 50.478 48.245 51.1351 48.3553L52.6977 48.6219C52.8585 49.1366 53.0699 49.6376 53.3273 50.1155L52.4219 51.3748C52.0359 51.9171 52.0957 52.657 52.569 53.1258L53.9385 54.4953C54.1959 54.7527 54.536 54.8951 54.899 54.8951C55.184 54.8951 55.4551 54.8078 55.6849 54.6424L56.9763 53.7232C57.4405 53.9668 57.9276 54.1644 58.4286 54.3207L58.6859 55.8648C58.7962 56.522 59.3615 57 60.0279 57H61.9673C62.6337 57 63.1989 56.522 63.3092 55.8648L63.5712 54.3207C64.0905 54.1598 64.5914 53.953 65.0694 53.7002L66.3424 54.6102C66.5722 54.7756 66.8479 54.863 67.1329 54.863C67.4959 54.863 67.836 54.7205 68.0934 54.4631L69.4629 53.0936C69.9317 52.6248 69.996 51.8849 69.61 51.3426L68.7 50.065C68.9528 49.5824 69.1642 49.0815 69.3204 48.5667L70.8646 48.3094C71.5218 48.1991 71.9997 47.6338 71.9997 46.9674V45.0326C72.0089 44.3662 71.531 43.8009 70.8738 43.6906Z" fill="#438DE1"/>
<path d="M61 41C58.241 41 56 43.241 56 46C56 48.759 58.241 51 61 51C63.759 51 66 48.759 66 46C66 43.241 63.759 41 61 41Z" fill="white"/>
<path fill-rule="evenodd" clip-rule="evenodd" d="M9.91304 34.2861C9.91304 29.8608 8.18359 27.4802 4.72464 27.1444V26.6703C8.18359 26.3147 9.91304 23.9637 9.91304 19.6175V10.8459C9.91304 8.45545 10.4348 6.74659 11.4783 5.71929C12.5411 4.69199 14.2802 4.17834 16.6957 4.17834H18V0H16.2609C8.85987 0 5.15942 3.39795 5.15942 10.194V17.7505C5.15942 20.1015 4.78261 21.7412 4.02899 22.6697C3.27536 23.5982 1.93238 24.0625 0 24.0625V29.7225C1.93238 29.7225 3.27536 30.1769 4.02899 31.0857C4.78261 32.0142 5.15942 33.644 5.15942 35.9752V44.5393C5.15942 51.5131 8.85987 55 16.2609 55H18V50.8217H16.6957C14.2802 50.8217 12.5507 50.308 11.5072 49.2807C10.4444 48.2337 9.91304 46.5347 9.91304 44.1837V34.2861ZM40.087 19.6175C40.087 23.9637 41.8164 26.3147 45.2754 26.6703V27.1444C41.8164 27.4802 40.087 29.8608 40.087 34.2861V44.1837C40.087 46.5347 39.5556 48.2337 38.4928 49.2807C37.4493 50.308 35.7198 50.8217 33.3043 50.8217H32V55H33.7391C41.1401 55 44.8406 51.5131 44.8406 44.5393V35.9752C44.8406 33.644 45.2174 32.0142 45.971 31.0857C46.7246 30.1769 48.0676 29.7225 50 29.7225V24.0625C48.0676 24.0625 46.7246 23.5982 45.971 22.6697C45.2174 21.7412 44.8406 20.1015 44.8406 17.7505V10.194C44.8406 3.39795 41.1401 0 33.7391 0H32V4.17834H33.3043C35.7198 4.17834 37.4589 4.69199 38.5217 5.71929C39.5652 6.74659 40.087 8.45545 40.087 10.8459V19.6175Z" fill="#438DE1"/>
</svg>
